<svg width="625" height="426" viewBox="0 0 625 426" fill="none" xmlns="http://www.w3.org/2000/svg">
<path d="M3.17822 417.058C103.799 279.888 204.419 142.94 305.04 5.77075C351.907 78.1288 398.996 150.265 445.864 222.623C398.996 286.769 303.593 417.058 303.593 417.058H173.767L285.271 251.256" stroke="#2F4E91" stroke-width="3" stroke-miterlimit="10"/>
<path d="M591.609 418.769H339.745L468.388 242.223L591.609 418.769Z" stroke="#F17D2C" stroke-width="3"/>
<path d="M331.315 211.192C331.315 225.338 319.847 236.805 305.701 236.805C291.556 236.805 280.088 225.338 280.088 211.192C280.088 197.046 291.556 185.579 305.701 185.579C319.847 185.579 331.315 197.046 331.315 211.192Z" stroke="#F17D2C" stroke-width="2.4"/>
<g clip-path="url(#clip0_26_1916)">
<path d="M3.17822 417.058C103.799 279.888 204.419 142.94 305.04 5.77075C351.907 78.1288 398.996 150.265 445.864 222.623C398.996 286.769 303.593 417.058 303.593 417.058H173.767L285.271 251.256" stroke="white" stroke-width="12" stroke-miterlimit="10"/>
<path d="M591.609 418.769H339.745L468.388 242.223L591.609 418.769Z" stroke="#F9F8F8" stroke-width="12"/>
<path d="M327.515 211.192C327.515 223.239 317.749 233.005 305.701 233.005C293.654 233.005 283.888 223.239 283.888 211.192C283.888 199.145 293.654 189.379 305.701 189.379C317.749 189.379 327.515 199.145 327.515 211.192Z" stroke="#F9F8F8" stroke-width="10"/>
</g>
<defs>
<clipPath id="clip0_26_1916">
<rect width="623.635" height="426" fill="white" transform="translate(0.514648)"/>
</clipPath>
</defs>
</svg>
