<svg width="426" height="80" viewBox="0 0 426 80" fill="none" xmlns="http://www.w3.org/2000/svg">
<rect x="226" y="12" width="12" height="110" rx="5" transform="rotate(-90 226 12)" fill="#2F4E91"/>
<rect x="199" y="80" width="12" height="144" rx="5" transform="rotate(-90 199 80)" fill="#2F4E91"/>
<rect x="170" y="80" width="12" height="144" rx="5" transform="rotate(-90 170 80)" fill="#2F4E91"/>
<rect x="50" y="80" width="12" height="88" rx="5" transform="rotate(-90 50 80)" fill="#2F4E91"/>
<rect x="220" y="46" width="12" height="188" rx="5" transform="rotate(-90 220 46)" fill="#2F4E91"/>
<rect y="46" width="12" height="188" rx="5" transform="rotate(-90 0 46)" fill="#2F4E91"/>
<rect x="366" y="12" width="12" height="99" rx="5" transform="rotate(-90 366 12)" fill="#2F4E91"/>
<rect x="94" y="12" width="12" height="110" rx="5" transform="rotate(-90 94 12)" fill="#2F4E91"/>
<rect x="366" y="80" width="12" height="230" rx="5" transform="rotate(-90 366 80)" fill="#2F4E91"/>
</svg>
