<svg width="57" height="76" viewBox="0 0 57 76" fill="none" xmlns="http://www.w3.org/2000/svg">
<path d="M0.000217438 4.24995L0.000217438 71.75C0.0023613 72.4334 0.190845 73.1032 0.545383 73.6875C0.899925 74.2717 1.40709 74.7482 2.01229 75.0657C2.61749 75.3831 3.29782 75.5295 3.98003 75.4891C4.66224 75.4486 5.3205 75.2229 5.88397 74.8362L54.634 41.0862C56.6552 39.6875 56.6552 36.32 54.634 34.9175L5.88397 1.16745C5.32168 0.776797 4.66308 0.547707 3.97974 0.505074C3.29639 0.46244 2.61443 0.607894 2.00794 0.925632C1.40145 1.24337 0.893639 1.72124 0.539677 2.30732C0.185715 2.8934 -0.000862122 3.56528 0.000217438 4.24995ZM45.9115 38L7.50022 64.5949L7.50022 11.405L45.9115 38Z" fill="#F17D2C"/>
</svg>
