<svg width="57" height="75" viewBox="0 0 57 75" fill="none" xmlns="http://www.w3.org/2000/svg">
<path d="M56.25 71.2457L56.25 3.74565C56.2479 3.06225 56.0594 2.39237 55.7049 1.80812C55.3503 1.22387 54.8432 0.747375 54.238 0.429924C53.6328 0.112473 52.9524 -0.0339203 52.2702 0.0065155C51.588 0.0469589 50.9297 0.272682 50.3663 0.659401L1.61628 34.4094C-0.404971 35.8082 -0.404971 39.1757 1.61628 40.5782L50.3663 74.3282C50.9286 74.7188 51.5872 74.9479 52.2705 74.9905C52.9539 75.0332 53.6358 74.8877 54.2423 74.57C54.8488 74.2522 55.3566 73.7744 55.7106 73.1883C56.0645 72.6022 56.2511 71.9303 56.25 71.2457ZM10.3388 37.4957L48.75 10.9007L48.75 64.0907L10.3388 37.4957Z" fill="#F17D2C"/>
</svg>
